<svg width="652" height="652" viewBox="0 0 652 652" fill="none" xmlns="http://www.w3.org/2000/svg">
<rect width="652" height="652" rx="326" fill="#122B45"/>
<path d="M143.732 264.638C143.732 242.895 161.359 225.268 183.102 225.268H187.039C208.783 225.268 226.41 242.895 226.41 264.638V535.308H143.732V264.638Z" fill="white"/>
<path d="M511.843 334.52V535.308H429.166V413.554L511.843 334.52Z" fill="white"/>
<path d="M154.839 293.852C139.464 278.477 139.464 253.549 154.839 238.174L157.623 235.39C172.998 220.015 197.926 220.015 213.301 235.39L374.518 396.607L343.895 427.23C328.52 442.605 303.592 442.605 288.217 427.23L154.839 293.852Z" fill="white"/>
<path d="M512.731 305.13L489.252 281.651L375.112 395.791C359.737 411.166 334.809 411.166 319.434 395.791L288.811 365.169L430.791 223.19L410.87 203.268L513.62 202.378L512.731 305.13Z" fill="white"/>
<circle cx="185.071" cy="166.213" r="49.2127" fill="white"/>
</svg>
